<?xml version="1.0" encoding="UTF-8" standalone="no"?>
<!-- Created with Inkscape (http://www.inkscape.org/) -->

<svg
   width="337.15204"
   height="399.99997"
   viewBox="0 0 89.204865 105.83332"
   version="1.1"
   id="svg1"
   xmlns="http://www.w3.org/2000/svg"
   xmlns:svg="http://www.w3.org/2000/svg">
  <defs
     id="defs1">
    <rect
       x="525.64105"
       y="362.8205"
       width="460.25641"
       height="135.89745"
       id="rect5-4-9-7" />
  </defs>
  <g
     id="layer1">
    <g
       id="g21"
       transform="matrix(0.40135922,0,0,0.40135922,-159.66953,-265.83268)">
      <text
         xml:space="preserve"
         id="text5-5-6-2"
         style="font-size:48px;text-align:start;writing-mode:lr-tb;direction:ltr;white-space:pre;shape-inside:url(#rect5-4-9-7);display:inline;fill:#000000"
         transform="translate(-132.81756,519.04405)"><tspan
           x="525.64062"
           y="406.49432"
           id="tspan4"><tspan
             style="font-family:'JetBrainsMono Nerd Font';-inkscape-font-specification:'JetBrainsMono Nerd Font'"
             id="tspan3">LEMURSEC</tspan></tspan></text>
      <path
         style="fill:#000000;stroke-width:0.327298"
         d="m 402.58444,884.82649 c -0.53902,-0.85491 -0.6431,-1.44893 -0.53039,-3.02749 0.25495,-3.56993 2.61329,-7.57849 6.21903,-10.57098 2.03065,-1.68517 6.25715,-3.81209 8.68863,-4.37228 2.24228,-0.51665 2.40763,-0.93244 2.38729,-6.00371 -0.0169,-4.1845 -0.71926,-8.67522 -2.81611,-18.00147 -5.56843,-24.76694 -6.05062,-40.36272 -1.96781,-63.65935 1.44038,-8.21839 3.00741,-14.76195 5.43614,-22.69994 l 0.98703,-3.22574 -1.13178,-2.33833 c -2.79087,-5.76651 -4.09652,-11.55808 -4.37806,-19.4199 l -0.20146,-5.62621 -2.73186,-2.31409 c -2.60259,-2.20461 -5.80362,-5.87005 -7.57035,-8.6688 -2.72286,-4.31329 -5.22831,-10.68782 -6.50466,-16.54948 -0.86013,-3.94993 -0.86537,-16.7985 -0.008,-21.11069 0.87524,-4.4054 1.79177,-7.2512 2.6607,-8.26099 0.67782,-0.78768 0.98849,-0.89459 2.42566,-0.83502 7.9735,0.33038 23.95874,11.34287 30.38917,20.93546 l 1.13497,1.6932 2.1796,-1.47027 c 4.32574,-2.91803 9.48253,-4.96169 15.99543,-6.33907 4.76803,-1.00834 13.9103,-1.25661 18.44087,-0.50078 6.1808,1.03114 10.81351,2.8015 15.25767,5.83062 l 2.67462,1.823 1.74388,-2.34618 c 5.98179,-8.04747 18.68406,-17.08978 26.99358,-19.21581 3.39159,-0.86777 4.17779,-0.67461 5.16002,1.26773 1.93671,3.82985 3.17776,14.6121 2.54593,22.11898 -1.06112,12.60786 -5.2641,22.54401 -12.59051,29.76519 l -2.94157,2.89929 0.23944,7.23932 c 0.26313,7.95527 0.72112,10.59619 2.45099,14.13407 1.09211,2.23339 3.20574,4.37216 12.7078,12.85921 6.2316,5.56589 9.97892,9.6435 14.19466,15.44577 8.72161,12.00356 14.23715,23.9929 18.85016,40.97448 l 1.57285,5.78982 1.48419,-1.86226 c 3.70863,-4.65351 6.15268,-9.10694 7.76434,-14.14799 1.76949,-5.53437 2.15894,-8.31472 2.15349,-15.37107 -0.007,-5.66693 -0.10382,-6.85066 -0.88695,-10.56078 -2.10525,-9.97442 -5.41807,-17.71429 -12.99098,-30.35142 -8.98519,-14.99355 -12.87882,-25.10423 -14.41075,-37.4215 -0.55536,-4.46497 -0.23293,-13.51588 0.62313,-17.49306 2.83124,-13.15311 9.69329,-22.93497 19.52033,-27.82643 8.03476,-3.9993 17.79459,-4.78186 26.67478,-2.13879 3.41193,1.0155 8.26907,3.48003 11.17229,5.66882 6.89352,5.19713 13.50213,15.11196 16.25578,24.38863 1.92638,6.48931 2.19072,8.32345 2.17007,15.05569 -0.0181,5.81398 -0.0774,6.41034 -0.91587,9.16432 -1.10546,3.63123 -2.97571,6.86035 -5.03099,8.68628 -6.24206,5.54559 -16.2837,4.29787 -20.65709,-2.56671 -1.63799,-2.57089 -2.33146,-5.22342 -2.698,-10.31908 -0.59121,-8.21974 -2.25874,-13.14111 -5.71863,-16.87827 -3.02149,-3.26354 -6.71298,-4.47154 -9.72553,-3.18253 -3.03251,1.29751 -5.47006,6.94647 -5.45466,12.64126 0.02,7.3167 2.76986,14.06487 13.40544,32.8934 10.71096,18.96187 13.53981,25.5483 15.6744,36.49367 3.16888,16.24881 0.55522,33.98925 -7.08829,48.11276 -6.32761,11.69219 -15.87911,22.30096 -25.84048,28.70092 -3.3157,2.13036 -3.34237,2.1578 -3.54745,3.66045 -0.52568,3.85085 -1.89909,9.86082 -3.06442,13.40956 -3.06924,9.34711 -6.47424,13.69506 -12.09249,15.44167 -2.00654,0.62377 -3.12025,0.6466 -31.49486,0.6466 h -29.41471 l -0.5429,-0.82846 c -0.96012,-1.46535 0.0381,-5.66957 1.66723,-7.02158 0.29301,-0.24313 0.68196,-0.72086 0.86437,-1.06173 0.31874,-0.59551 0.29183,-0.59896 -0.69202,-0.0903 -2.70683,1.39981 -4.96183,4.55757 -5.43475,7.61101 l -0.21554,1.39111 h -4.16236 c -5.237,0 -5.40934,-0.12485 -5.40934,-3.89717 0,-2.25013 0.13077,-2.78354 1.22427,-4.99604 0.90319,-1.8276 1.80693,-3.02666 3.4475,-4.57433 2.66859,-2.51741 4.37294,-3.55679 7.80159,-4.75751 2.47627,-0.86722 2.84551,-0.90467 8.98725,-0.91306 h 6.40497 l -1.11576,-2.41521 c -3.78205,-8.18665 -5.94011,-17.26435 -6.68628,-28.12464 -0.64402,-9.3747 0.45692,-18.76026 3.17757,-27.09197 1.15777,-3.54563 4.25154,-10.30043 3.91723,-8.55316 -1.3358,6.98347 -1.59765,9.81793 -1.60866,17.41746 -0.008,6.10376 0.12124,8.65796 0.58439,11.45546 2.53786,15.33194 7.42546,25.73947 16.57106,35.28602 6.87669,7.17831 14.89063,12.3447 21.66852,13.96974 6.58944,1.5797 10.69261,0.10021 13.01943,-4.69656 1.29237,-2.6641 2.47441,-6.8913 3.19198,-11.41537 0.82438,-5.19761 0.8138,-21.26092 -0.0187,-28.07075 -1.77662,-14.53552 -5.55711,-27.4593 -11.49733,-39.30369 -4.24467,-8.46337 -8.76472,-14.849 -14.70683,-20.77648 -5.93058,-5.91593 -11.10419,-9.61415 -18.35958,-13.12381 -4.84799,-2.34514 -5.13456,-2.38124 -7.8902,-0.99418 -3.12007,1.57051 -7.2997,2.98864 -10.60211,3.59732 -2.87181,0.52931 -6.40353,0.95643 -6.18125,0.74757 0.0695,-0.0652 1.52543,-1.05081 3.23553,-2.19016 3.96454,-2.64132 9.11199,-7.74967 11.59027,-11.50228 4.77634,-7.23228 6.73252,-14.71204 6.74002,-25.77162 l 0.006,-5.07312 1.26428,-0.72181 c 1.83802,-1.04939 4.79861,-3.85426 6.65741,-6.3073 2.08641,-2.75354 4.61538,-7.92005 5.62857,-11.49864 1.60209,-5.659 1.91201,-13.93856 0.72745,-19.43877 -0.86386,-4.01122 -0.85255,-4.00423 -3.88186,-2.38966 -3.85302,2.05365 -9.36224,8.00899 -12.47617,13.48646 -1.79108,3.15066 -4.7333,9.60387 -5.61006,12.30498 -0.32141,0.99007 -0.64879,1.91348 -0.72769,2.052 -0.0788,0.13848 -1.0533,-0.57197 -2.16564,-1.5789 -1.12433,-1.01779 -3.19797,-2.4135 -4.66976,-3.14305 -4.79962,-2.37915 -8.84231,-2.09424 -16.91757,1.19218 -4.32313,1.75943 -7.11377,2.26523 -11.36462,2.05992 -2.65401,-0.12814 -3.54066,-0.33026 -6.05501,-1.37996 -5.35708,-2.2365 -7.90453,-3.07849 -10.51298,-3.47489 -5.08229,-0.77234 -9.7898,0.78303 -13.97393,4.61702 -1.20333,1.10263 -2.1878,1.86047 -2.1878,1.68416 0,-0.82905 -6.45771,-13.47154 -8.25866,-16.1685 -3.77343,-5.65042 -9.74852,-11.07677 -13.59459,-12.34608 -0.76342,-0.25197 -1.47134,-0.37499 -1.57298,-0.27335 -0.6969,0.69694 -1.77573,7.70778 -1.77573,11.5401 0,11.70047 5.84623,23.55091 14.14307,28.66853 l 1.7618,1.0867 -0.13733,3.85276 c -0.15409,4.32136 0.30258,9.45315 1.23248,13.85016 2.30732,10.91014 8.39462,19.52285 18.01237,25.48547 1.34545,0.83411 2.27897,1.51656 2.07445,1.51656 -2.48886,0 -10.84185,-2.51146 -12.55383,-3.77449 -1.97225,-1.45508 -1.95736,-1.47273 -4.02824,4.79569 -3.53029,10.68609 -5.61926,24.77725 -5.23437,35.30883 0.58269,15.94684 4.65825,28.66609 13.37095,41.7305 3.73048,5.59351 6.35302,8.69985 12.57312,14.892 7.32622,7.29347 13.4281,12.05968 20.57139,16.06841 l 2.70865,1.51989 -3.03595,0.23296 c -9.63409,0.73892 -13.44693,2.71125 -15.83391,8.19059 l -0.93048,2.13578 h -22.67948 -22.67913 z m 189.85199,-74.6238 c 1.37761,-3.13312 2.94622,-11.22581 2.94996,-15.21938 0,-1.12507 -0.0345,-2.04561 -0.08,-2.04561 -0.0443,0 -1.11288,0.22219 -2.3729,0.49374 -3.98625,0.85912 -12.66554,0.50202 -15.56162,-0.64028 -0.42469,-0.16747 -0.57018,0.3761 -0.90375,3.37614 -0.21858,1.96666 -0.77281,5.06382 -1.23148,6.88271 -0.45871,1.81872 -0.74071,3.45789 -0.62662,3.64237 0.39665,0.64185 4.73403,2.61121 7.59206,3.44706 2.43868,0.71346 5.60636,1.21698 8.86798,1.40968 0.59159,0.0345 0.8871,-0.25612 1.36641,-1.34643 z m -8.66722,-36.39837 c 2.21752,-0.58875 6.79729,-2.69735 7.99115,-3.67921 l 0.79066,-0.65018 -1.11589,-3.24248 c -1.10161,-3.20075 -5.20326,-11.99983 -5.74848,-12.33172 -0.15458,-0.094 -1.21414,0.39443 -2.35481,1.08557 -3.06337,1.85608 -6.63897,3.2439 -10.38703,4.0316 l -3.3265,0.6991 1.27872,2.9457 c 1.00938,2.32499 3.15335,8.41093 4.08081,11.58385 0.17535,0.59961 5.96414,0.30841 8.79137,-0.44223 z m -18.65597,-33.58761 c 4.82253,-1.08743 11.09251,-4.10417 10.36124,-4.98521 -0.57242,-0.68974 -4.53096,-8.26139 -5.79265,-11.07992 -0.67182,-1.50062 -1.24344,-2.75833 -1.27048,-2.79492 -0.0276,-0.0366 -1.02464,0.28756 -2.217,0.72037 -3.47546,1.26151 -7.35733,1.8541 -11.39458,1.73944 -1.97882,-0.0562 -3.59768,-0.059 -3.59726,-0.006 0.006,0.77489 2.98747,7.68217 5.12531,11.87138 l 2.76659,5.42156 2.19117,-0.25881 c 1.20513,-0.14227 2.92762,-0.42486 3.82766,-0.62782 z m 43.30692,-15.53302 c 2.21989,-0.65926 4.02356,-2.40056 5.29039,-5.10791 1.10669,-2.36488 1.97019,-6.28473 1.97019,-8.94333 v -1.73251 l -1.55465,-0.39459 c -5.17442,-1.31339 -12.16908,-0.40252 -17.39951,2.26585 l -1.43118,0.73013 0.18381,2.8335 c 0.24913,3.84017 1.20638,6.34584 3.1494,8.24392 2.47617,2.41883 6.10657,3.19927 9.79155,2.10494 z m -42.55611,-24.28936 c 0.44245,-2.12982 1.99735,-5.59909 3.2409,-7.23089 0.70066,-0.91938 0.76206,-1.16075 0.38487,-1.5119 -0.24694,-0.22983 -2.24442,-1.98121 -4.4389,-3.892 -2.19448,-1.91079 -5.1738,-4.58115 -6.62049,-5.93411 -1.4467,-1.35299 -2.74658,-2.45996 -2.88851,-2.45996 -0.46973,0 -2.49118,3.3888 -3.92229,6.57536 -1.35758,3.02316 -2.71698,7.65585 -3.17106,10.80726 l -0.21736,1.50871 1.73144,0.74561 c 4.42445,1.9053 9.84388,3.19033 13.69407,3.24711 l 1.81656,0.0268 z m 26.02579,-7.99442 c 1.89648,-2.28212 4.97874,-4.65498 7.58969,-5.84289 2.10556,-0.95795 6.02967,-1.95479 7.6952,-1.95479 h 1.01996 l -1.39888,-2.04561 c -2.14467,-3.13618 -8.53117,-9.34761 -11.50404,-11.18882 l -2.55131,-1.58009 -1.37629,0.59543 c -8.0115,3.4661 -12.53088,9.17186 -12.2748,15.49712 l 0.0977,2.41334 1.76335,0.45021 c 2.58081,0.65892 5.41493,2.28704 7.34293,4.21824 0.93197,0.9335 1.77506,1.60687 1.87356,1.49636 0.0986,-0.11055 0.8737,-1.03682 1.72288,-2.0585 z M 460.05079,824.19379 c -4.74287,-1.67777 -6.30003,-9.39278 -2.75973,-13.67339 1.54044,-1.86258 3.28122,-2.62714 5.59959,-2.45941 2.46879,0.17857 4.32301,1.42578 5.48835,3.69167 0.71886,1.39767 0.83445,2.04001 0.824,4.57909 -0.0194,4.62477 -1.51691,7.06923 -4.89731,7.99248 -1.70228,0.46507 -2.65376,0.43583 -4.2549,-0.12979 z m 0.33085,-26.20325 c -2.88543,-1.08421 -4.7493,-4.03729 -4.7493,-7.52472 0,-3.51689 1.6492,-6.28498 4.53059,-7.60411 1.67793,-0.76819 1.95567,-0.80381 3.59249,-0.4605 3.04877,0.63951 4.93893,2.62033 5.64597,5.91685 0.47417,2.21148 -0.0301,5.2505 -1.15433,6.94852 -1.62466,2.45512 -5.24443,3.70883 -7.86542,2.72396 z m -0.5233,-35.3097 c -3.91166,-1.07903 -7.24932,-3.71442 -8.84539,-6.98424 -0.97896,-2.00541 -1.05079,-5.41048 -0.16395,-7.7623 0.33942,-0.90007 2.86097,-5.02403 5.60329,-9.16434 2.74232,-4.1403 5.47819,-8.36916 6.07971,-9.39746 l 1.09368,-1.86962 1.3072,2.03327 c 3.0245,4.70431 6.61993,10.0609 8.39531,12.50752 1.04523,1.44051 2.38479,3.64977 2.97686,4.90948 2.111,4.49173 1.21233,9.17682 -2.37945,12.40614 -1.78709,1.60679 -4.29761,2.92861 -6.54717,3.44723 -1.93213,0.44542 -5.67676,0.38283 -7.52009,-0.12567 z m 10.17506,-13.49126 c 0,-0.0841 -0.15245,-0.43765 -0.33889,-0.78585 -0.4221,-0.78887 -1.68795,-0.8214 -2.34605,-0.0603 -0.61379,0.70971 -1.24262,2.53143 -1.24262,3.59966 0,0.75092 0.1247,0.69384 1.96376,-0.89947 1.08003,-0.93569 1.9638,-1.77001 1.9638,-1.85403 z m -8.39562,1.44491 c -0.27781,-0.94505 -0.73465,-1.97605 -1.01489,-2.29107 -1.07714,-1.21009 -3.07417,-0.24797 -2.33859,1.12661 0.32761,0.61211 3.16004,2.8828 3.59606,2.8828 0.14456,0 0.035,-0.77326 -0.24258,-1.71834 z m -20.99512,-6.79868 c -3.30318,-0.86535 -6.07967,-2.42366 -8.44299,-4.73856 -3.49945,-3.42755 -4.92492,-7.31866 -4.61651,-12.60094 0.28499,-4.88161 1.66222,-8.20093 4.78979,-11.54427 2.29743,-2.45596 4.84511,-3.83369 7.54145,-4.07816 9.07273,-0.82269 18.74964,9.59779 17.03428,18.34304 -0.74541,3.80027 -2.5522,6.50022 -8.63762,12.90783 -2.17582,2.29098 -2.30586,2.3723 -3.76671,2.35491 -0.83215,-0.01 -2.58799,-0.29965 -3.90169,-0.64385 z m 5.00657,-9.19109 c 0.78934,-0.19873 2.05274,-0.89012 2.80784,-1.53642 4.13444,-3.53895 3.20009,-10.07051 -1.78602,-12.48422 -1.9419,-0.94007 -5.18349,-0.92722 -6.74904,0.0268 -2.04303,1.24491 -2.88255,2.97879 -2.9208,6.03265 -0.0456,3.7108 1.74441,6.904 4.39362,7.83418 1.61271,0.56622 2.41518,0.59018 4.2544,0.12699 z m -2.32723,-3.23243 c -0.91944,-0.37147 -1.99658,-1.77792 -2.25186,-2.94017 -0.11351,-0.51652 -0.0463,-1.5327 0.149,-2.25817 0.86945,-3.2288 4.86182,-3.66318 6.39625,-0.69592 1.69188,3.27184 -1.14479,7.1664 -4.29334,5.89426 z m 36.27496,11.36707 c -7.42072,-7.81052 -9.23627,-10.85541 -9.23627,-15.48974 0,-4.17217 2.12847,-8.58528 5.72119,-11.86211 3.81216,-3.47701 8.10287,-5.04368 11.95482,-4.36515 2.81798,0.49636 4.16304,1.2307 6.38037,3.48329 3.27201,3.32414 5.06246,7.89612 5.0644,12.93256 0.006,4.79353 -1.34845,7.96686 -4.8744,11.45541 -2.81186,2.78194 -5.35103,4.18735 -9.09172,5.03207 -3.72304,0.84077 -4.05578,0.77407 -5.91839,-1.18633 z m 6.77069,-8.5804 c 2.3975,-1.25308 3.66727,-3.73842 3.70364,-7.24959 0.0464,-4.42438 -2.20187,-7.00328 -6.09744,-6.99581 -1.96444,0.004 -4.51188,1.09405 -5.82252,2.49195 -4.45066,4.74701 -0.56178,13.10371 5.76162,12.38072 0.88317,-0.10103 1.98779,-0.38326 2.4547,-0.62727 z m -5.12222,-2.78739 c -0.99968,-0.42267 -2.04498,-2.22809 -2.04655,-3.53477 0,-1.44947 0.74535,-3.14234 1.67362,-3.79246 0.86137,-0.60338 2.63781,-0.70099 3.58011,-0.19672 1.81222,0.96988 2.17819,5.14334 0.59014,6.73131 -0.89723,0.89725 -2.67317,1.26794 -3.79732,0.79264 z m -62.03261,-18.01022 c -4.37856,-3.8542 -7.10186,-10.85135 -7.10863,-18.26472 v -2.72114 l 1.36371,0.75735 c 1.95168,1.08384 4.6647,3.64649 6.32774,5.97704 1.70103,2.38371 3.76397,6.56386 3.76397,7.62686 0,0.41523 -0.44584,1.63808 -0.99073,2.71746 -0.54483,1.07936 -1.17985,2.70154 -1.41089,3.60483 l -0.42044,1.64237 z m 85.04329,-0.17841 c -0.13224,-0.71026 -0.7417,-2.50473 -1.35444,-3.98776 l -1.11408,-2.69638 0.64572,-1.72213 c 1.7293,-4.61171 5.75862,-9.80567 8.81786,-11.36633 l 1.42153,-0.72523 -0.18043,4.03917 c -0.30007,6.71605 -2.17294,11.59939 -5.9986,15.64041 l -1.99717,2.10961 z"
         id="path1-1-2" />
    </g>
  </g>
</svg>
